<svg xmlns="http://www.w3.org/2000/svg" viewBox="0 0 400 400" role="img" aria-label="abc-cluster — Africa dot grid mark">
<rect width="400" height="400" rx="32" fill="#f0faf7"></rect>
<g transform="translate(200 194) scale(1.64)">
<path d="M -18 -78 L 18 -76 L 34 -64 L 40 -48 L 48 -30 L 60 -18 L 52 -6 L 46 14 L 40 36 L 28 58 L 10 74 L -6 78 L -22 72 L -30 52 L -28 32 L -20 12 L -14 2 L -32 -2 L -50 -4 L -58 -18 L -54 -36 L -40 -52 L -32 -68 Z" fill="none" stroke="#907028" stroke-width="0.8" opacity="0.45"></path>
<circle cx="-24" cy="-72" r="1.3" fill="#0a2820" opacity="0.92"></circle><circle cx="-18" cy="-72" r="1.3" fill="#0a2820" opacity="0.92"></circle><circle cx="-12" cy="-72" r="1.3" fill="#0a2820" opacity="0.92"></circle><circle cx="-6" cy="-72" r="1.3" fill="#0a2820" opacity="0.92"></circle><circle cx="0" cy="-72" r="1.3" fill="#0a2820" opacity="0.92"></circle><circle cx="6" cy="-72" r="1.3" fill="#0a2820" opacity="0.92"></circle><circle cx="12" cy="-72" r="1.3" fill="#0a2820" opacity="0.92"></circle><circle cx="18" cy="-72" r="1.3" fill="#0a2820" opacity="0.92"></circle><circle cx="-30" cy="-66" r="1.3" fill="#0a2820" opacity="0.92"></circle><circle cx="-24" cy="-66" r="1.3" fill="#0a2820" opacity="0.92"></circle><circle cx="-18" cy="-66" r="1.3" fill="#0a2820" opacity="0.92"></circle><circle cx="-12" cy="-66" r="1.3" fill="#0a2820" opacity="0.92"></circle><circle cx="-6" cy="-66" r="1.3" fill="#0a2820" opacity="0.92"></circle><circle cx="0" cy="-66" r="1.3" fill="#0a2820" opacity="0.92"></circle><circle cx="6" cy="-66" r="1.3" fill="#0a2820" opacity="0.92"></circle><circle cx="12" cy="-66" r="1.3" fill="#0a2820" opacity="0.92"></circle><circle cx="18" cy="-66" r="1.3" fill="#0a2820" opacity="0.92"></circle><circle cx="24" cy="-66" r="1.3" fill="#0a2820" opacity="0.92"></circle><circle cx="30" cy="-66" r="1.3" fill="#0a2820" opacity="0.92"></circle><circle cx="-36" cy="-60" r="1.3" fill="#0a2820" opacity="0.92"></circle><circle cx="-30" cy="-60" r="1.3" fill="#0a2820" opacity="0.92"></circle><circle cx="-24" cy="-60" r="1.3" fill="#0a2820" opacity="0.92"></circle><circle cx="-18" cy="-60" r="1.3" fill="#0a2820" opacity="0.92"></circle><circle cx="-12" cy="-60" r="1.3" fill="#0a2820" opacity="0.92"></circle><circle cx="-6" cy="-60" r="1.3" fill="#0a2820" opacity="0.92"></circle><circle cx="0" cy="-60" r="1.3" fill="#0a2820" opacity="0.92"></circle><circle cx="6" cy="-60" r="1.3" fill="#0a2820" opacity="0.92"></circle><circle cx="12" cy="-60" r="1.3" fill="#0a2820" opacity="0.92"></circle><circle cx="18" cy="-60" r="1.3" fill="#0a2820" opacity="0.92"></circle><circle cx="24" cy="-60" r="1.3" fill="#0a2820" opacity="0.92"></circle><circle cx="30" cy="-60" r="1.3" fill="#0a2820" opacity="0.92"></circle><circle cx="-36" cy="-54" r="1.3" fill="#0a2820" opacity="0.92"></circle><circle cx="-30" cy="-54" r="1.3" fill="#0a2820" opacity="0.92"></circle><circle cx="-24" cy="-54" r="1.3" fill="#0a2820" opacity="0.92"></circle><circle cx="-18" cy="-54" r="1.3" fill="#0a2820" opacity="0.92"></circle><circle cx="-12" cy="-54" r="1.3" fill="#0a2820" opacity="0.92"></circle><circle cx="-6" cy="-54" r="1.3" fill="#0a2820" opacity="0.92"></circle><circle cx="0" cy="-54" r="1.3" fill="#0a2820" opacity="0.92"></circle><circle cx="6" cy="-54" r="1.3" fill="#0a2820" opacity="0.92"></circle><circle cx="12" cy="-54" r="1.3" fill="#0a2820" opacity="0.92"></circle><circle cx="18" cy="-54" r="1.3" fill="#0a2820" opacity="0.92"></circle><circle cx="24" cy="-54" r="1.3" fill="#0a2820" opacity="0.92"></circle><circle cx="30" cy="-54" r="1.3" fill="#0a2820" opacity="0.92"></circle><circle cx="36" cy="-54" r="1.3" fill="#0a2820" opacity="0.92"></circle><circle cx="-42" cy="-48" r="1.3" fill="#0a2820" opacity="0.92"></circle><circle cx="-36" cy="-48" r="1.3" fill="#0a2820" opacity="0.92"></circle><circle cx="-30" cy="-48" r="1.3" fill="#0a2820" opacity="0.92"></circle><circle cx="-24" cy="-48" r="1.3" fill="#0a2820" opacity="0.92"></circle><circle cx="-18" cy="-48" r="1.3" fill="#0a2820" opacity="0.92"></circle><circle cx="-12" cy="-48" r="1.3" fill="#0a2820" opacity="0.92"></circle><circle cx="-6" cy="-48" r="1.3" fill="#0a2820" opacity="0.92"></circle><circle cx="0" cy="-48" r="1.3" fill="#0a2820" opacity="0.92"></circle><circle cx="6" cy="-48" r="1.3" fill="#0a2820" opacity="0.92"></circle><circle cx="12" cy="-48" r="1.3" fill="#0a2820" opacity="0.92"></circle><circle cx="18" cy="-48" r="1.3" fill="#0a2820" opacity="0.92"></circle><circle cx="24" cy="-48" r="1.3" fill="#0a2820" opacity="0.92"></circle><circle cx="30" cy="-48" r="1.3" fill="#0a2820" opacity="0.92"></circle><circle cx="36" cy="-48" r="1.3" fill="#0a2820" opacity="0.92"></circle><circle cx="-48" cy="-42" r="1.3" fill="#0a2820" opacity="0.92"></circle><circle cx="-42" cy="-42" r="1.3" fill="#0a2820" opacity="0.92"></circle><circle cx="-36" cy="-42" r="1.3" fill="#0a2820" opacity="0.92"></circle><circle cx="-30" cy="-42" r="1.3" fill="#0a2820" opacity="0.92"></circle><circle cx="-24" cy="-42" r="1.3" fill="#0a2820" opacity="0.92"></circle><circle cx="-18" cy="-42" r="1.3" fill="#0a2820" opacity="0.92"></circle><circle cx="-12" cy="-42" r="1.3" fill="#0a2820" opacity="0.92"></circle><circle cx="-6" cy="-42" r="1.3" fill="#0a2820" opacity="0.92"></circle><circle cx="0" cy="-42" r="1.3" fill="#0a2820" opacity="0.92"></circle><circle cx="6" cy="-42" r="1.3" fill="#0a2820" opacity="0.92"></circle><circle cx="12" cy="-42" r="1.3" fill="#0a2820" opacity="0.92"></circle><circle cx="18" cy="-42" r="1.3" fill="#0a2820" opacity="0.92"></circle><circle cx="24" cy="-42" r="1.3" fill="#0a2820" opacity="0.92"></circle><circle cx="30" cy="-42" r="1.3" fill="#0a2820" opacity="0.92"></circle><circle cx="36" cy="-42" r="1.3" fill="#0a2820" opacity="0.92"></circle><circle cx="42" cy="-42" r="1.3" fill="#0a2820" opacity="0.92"></circle><circle cx="-54" cy="-36" r="1.3" fill="#0a2820" opacity="0.92"></circle><circle cx="-48" cy="-36" r="1.3" fill="#0a2820" opacity="0.92"></circle><circle cx="-42" cy="-36" r="1.3" fill="#0a2820" opacity="0.92"></circle><circle cx="-36" cy="-36" r="1.3" fill="#0a2820" opacity="0.92"></circle><circle cx="-30" cy="-36" r="1.3" fill="#0a2820" opacity="0.92"></circle><circle cx="-24" cy="-36" r="1.3" fill="#0a2820" opacity="0.92"></circle><circle cx="-18" cy="-36" r="1.3" fill="#0a2820" opacity="0.92"></circle><circle cx="-12" cy="-36" r="1.3" fill="#0a2820" opacity="0.92"></circle><circle cx="-6" cy="-36" r="1.3" fill="#0a2820" opacity="0.92"></circle><circle cx="0" cy="-36" r="1.3" fill="#0a2820" opacity="0.92"></circle><circle cx="6" cy="-36" r="1.3" fill="#0a2820" opacity="0.92"></circle><circle cx="12" cy="-36" r="1.3" fill="#0a2820" opacity="0.92"></circle><circle cx="18" cy="-36" r="1.3" fill="#0a2820" opacity="0.92"></circle><circle cx="24" cy="-36" r="1.3" fill="#0a2820" opacity="0.92"></circle><circle cx="30" cy="-36" r="1.3" fill="#0a2820" opacity="0.92"></circle><circle cx="36" cy="-36" r="1.3" fill="#0a2820" opacity="0.92"></circle><circle cx="42" cy="-36" r="1.3" fill="#0a2820" opacity="0.92"></circle><circle cx="-54" cy="-30" r="1.3" fill="#0a2820" opacity="0.92"></circle><circle cx="-48" cy="-30" r="1.3" fill="#0a2820" opacity="0.92"></circle><circle cx="-42" cy="-30" r="1.3" fill="#0a2820" opacity="0.92"></circle><circle cx="-36" cy="-30" r="1.3" fill="#0a2820" opacity="0.92"></circle><circle cx="-30" cy="-30" r="1.3" fill="#0a2820" opacity="0.92"></circle><circle cx="-24" cy="-30" r="1.3" fill="#0a2820" opacity="0.92"></circle><circle cx="-18" cy="-30" r="1.3" fill="#0a2820" opacity="0.92"></circle><circle cx="-12" cy="-30" r="1.3" fill="#0a2820" opacity="0.92"></circle><circle cx="-6" cy="-30" r="1.3" fill="#0a2820" opacity="0.92"></circle><circle cx="0" cy="-30" r="1.3" fill="#0a2820" opacity="0.92"></circle><circle cx="6" cy="-30" r="1.3" fill="#0a2820" opacity="0.92"></circle><circle cx="12" cy="-30" r="1.3" fill="#0a2820" opacity="0.92"></circle><circle cx="18" cy="-30" r="1.3" fill="#0a2820" opacity="0.92"></circle><circle cx="24" cy="-30" r="1.3" fill="#0a2820" opacity="0.92"></circle><circle cx="30" cy="-30" r="1.3" fill="#0a2820" opacity="0.92"></circle><circle cx="36" cy="-30" r="1.3" fill="#0a2820" opacity="0.92"></circle><circle cx="42" cy="-30" r="1.3" fill="#0a2820" opacity="0.92"></circle><circle cx="-54" cy="-24" r="1.3" fill="#0a2820" opacity="0.92"></circle><circle cx="-48" cy="-24" r="1.3" fill="#0a2820" opacity="0.92"></circle><circle cx="-42" cy="-24" r="1.3" fill="#0a2820" opacity="0.92"></circle><circle cx="-36" cy="-24" r="1.3" fill="#0a2820" opacity="0.92"></circle><circle cx="-30" cy="-24" r="1.3" fill="#0a2820" opacity="0.92"></circle><circle cx="-24" cy="-24" r="1.3" fill="#0a2820" opacity="0.92"></circle><circle cx="-18" cy="-24" r="1.3" fill="#0a2820" opacity="0.92"></circle><circle cx="-12" cy="-24" r="1.3" fill="#0a2820" opacity="0.92"></circle><circle cx="-6" cy="-24" r="1.3" fill="#0a2820" opacity="0.92"></circle><circle cx="0" cy="-24" r="1.3" fill="#0a2820" opacity="0.92"></circle><circle cx="6" cy="-24" r="1.3" fill="#0a2820" opacity="0.92"></circle><circle cx="12" cy="-24" r="1.3" fill="#0a2820" opacity="0.92"></circle><circle cx="18" cy="-24" r="1.3" fill="#0a2820" opacity="0.92"></circle><circle cx="24" cy="-24" r="1.3" fill="#0a2820" opacity="0.92"></circle><circle cx="30" cy="-24" r="1.3" fill="#0a2820" opacity="0.92"></circle><circle cx="36" cy="-24" r="1.3" fill="#0a2820" opacity="0.92"></circle><circle cx="42" cy="-24" r="1.3" fill="#0a2820" opacity="0.92"></circle><circle cx="48" cy="-24" r="1.3" fill="#0a2820" opacity="0.92"></circle><circle cx="-54" cy="-18" r="1.3" fill="#0a2820" opacity="0.92"></circle><circle cx="-48" cy="-18" r="1.3" fill="#0a2820" opacity="0.92"></circle><circle cx="-42" cy="-18" r="1.3" fill="#0a2820" opacity="0.92"></circle><circle cx="-36" cy="-18" r="1.3" fill="#0a2820" opacity="0.92"></circle><circle cx="-30" cy="-18" r="1.3" fill="#0a2820" opacity="0.92"></circle><circle cx="-24" cy="-18" r="1.3" fill="#0a2820" opacity="0.92"></circle><circle cx="-18" cy="-18" r="1.3" fill="#0a2820" opacity="0.92"></circle><circle cx="-12" cy="-18" r="1.3" fill="#0a2820" opacity="0.92"></circle><circle cx="-6" cy="-18" r="1.3" fill="#0a2820" opacity="0.92"></circle><circle cx="0" cy="-18" r="1.3" fill="#0a2820" opacity="0.92"></circle><circle cx="6" cy="-18" r="1.3" fill="#0a2820" opacity="0.92"></circle><circle cx="12" cy="-18" r="1.3" fill="#0a2820" opacity="0.92"></circle><circle cx="18" cy="-18" r="1.3" fill="#0a2820" opacity="0.92"></circle><circle cx="24" cy="-18" r="1.3" fill="#0a2820" opacity="0.92"></circle><circle cx="30" cy="-18" r="1.3" fill="#0a2820" opacity="0.92"></circle><circle cx="36" cy="-18" r="1.3" fill="#0a2820" opacity="0.92"></circle><circle cx="42" cy="-18" r="1.3" fill="#0a2820" opacity="0.92"></circle><circle cx="48" cy="-18" r="1.3" fill="#0a2820" opacity="0.92"></circle><circle cx="54" cy="-18" r="1.3" fill="#0a2820" opacity="0.92"></circle><circle cx="-54" cy="-12" r="1.3" fill="#0a2820" opacity="0.92"></circle><circle cx="-48" cy="-12" r="1.3" fill="#0a2820" opacity="0.92"></circle><circle cx="-42" cy="-12" r="1.3" fill="#0a2820" opacity="0.92"></circle><circle cx="-36" cy="-12" r="1.3" fill="#0a2820" opacity="0.92"></circle><circle cx="-30" cy="-12" r="1.3" fill="#0a2820" opacity="0.92"></circle><circle cx="-24" cy="-12" r="1.3" fill="#0a2820" opacity="0.92"></circle><circle cx="-18" cy="-12" r="1.3" fill="#0a2820" opacity="0.92"></circle><circle cx="-12" cy="-12" r="1.3" fill="#0a2820" opacity="0.92"></circle><circle cx="-6" cy="-12" r="1.3" fill="#0a2820" opacity="0.92"></circle><circle cx="0" cy="-12" r="1.3" fill="#0a2820" opacity="0.92"></circle><circle cx="6" cy="-12" r="1.3" fill="#0a2820" opacity="0.92"></circle><circle cx="12" cy="-12" r="1.3" fill="#0a2820" opacity="0.92"></circle><circle cx="18" cy="-12" r="1.3" fill="#0a2820" opacity="0.92"></circle><circle cx="24" cy="-12" r="1.3" fill="#0a2820" opacity="0.92"></circle><circle cx="30" cy="-12" r="1.3" fill="#0a2820" opacity="0.92"></circle><circle cx="36" cy="-12" r="1.3" fill="#0a2820" opacity="0.92"></circle><circle cx="42" cy="-12" r="1.3" fill="#0a2820" opacity="0.92"></circle><circle cx="48" cy="-12" r="1.3" fill="#0a2820" opacity="0.92"></circle><circle cx="54" cy="-12" r="1.3" fill="#0a2820" opacity="0.92"></circle><circle cx="-48" cy="-6" r="1.3" fill="#0a2820" opacity="0.92"></circle><circle cx="-42" cy="-6" r="1.3" fill="#0a2820" opacity="0.92"></circle><circle cx="-36" cy="-6" r="1.3" fill="#0a2820" opacity="0.92"></circle><circle cx="-30" cy="-6" r="1.3" fill="#0a2820" opacity="0.92"></circle><circle cx="-24" cy="-6" r="1.3" fill="#0a2820" opacity="0.92"></circle><circle cx="-18" cy="-6" r="1.3" fill="#0a2820" opacity="0.92"></circle><circle cx="-12" cy="-6" r="1.3" fill="#0a2820" opacity="0.92"></circle><circle cx="-6" cy="-6" r="1.3" fill="#0a2820" opacity="0.92"></circle><circle cx="0" cy="-6" r="1.3" fill="#0a2820" opacity="0.92"></circle><circle cx="6" cy="-6" r="1.3" fill="#0a2820" opacity="0.92"></circle><circle cx="12" cy="-6" r="1.3" fill="#0a2820" opacity="0.92"></circle><circle cx="18" cy="-6" r="1.3" fill="#0a2820" opacity="0.92"></circle><circle cx="24" cy="-6" r="1.3" fill="#0a2820" opacity="0.92"></circle><circle cx="30" cy="-6" r="1.3" fill="#0a2820" opacity="0.92"></circle><circle cx="36" cy="-6" r="1.3" fill="#0a2820" opacity="0.92"></circle><circle cx="42" cy="-6" r="1.3" fill="#0a2820" opacity="0.92"></circle><circle cx="48" cy="-6" r="1.3" fill="#0a2820" opacity="0.92"></circle><circle cx="-18" cy="0" r="1.3" fill="#0a2820" opacity="0.92"></circle><circle cx="-12" cy="0" r="1.3" fill="#0a2820" opacity="0.92"></circle><circle cx="-6" cy="0" r="1.3" fill="#0a2820" opacity="0.92"></circle><circle cx="0" cy="0" r="1.3" fill="#0a2820" opacity="0.92"></circle><circle cx="6" cy="0" r="1.3" fill="#0a2820" opacity="0.92"></circle><circle cx="12" cy="0" r="1.3" fill="#0a2820" opacity="0.92"></circle><circle cx="18" cy="0" r="1.3" fill="#0a2820" opacity="0.92"></circle><circle cx="24" cy="0" r="1.3" fill="#0a2820" opacity="0.92"></circle><circle cx="30" cy="0" r="1.3" fill="#0a2820" opacity="0.92"></circle><circle cx="36" cy="0" r="1.3" fill="#0a2820" opacity="0.92"></circle><circle cx="42" cy="0" r="1.3" fill="#0a2820" opacity="0.92"></circle><circle cx="48" cy="0" r="1.3" fill="#0a2820" opacity="0.92"></circle><circle cx="-12" cy="6" r="1.3" fill="#0a2820" opacity="0.92"></circle><circle cx="-6" cy="6" r="1.3" fill="#0a2820" opacity="0.92"></circle><circle cx="0" cy="6" r="1.3" fill="#0a2820" opacity="0.92"></circle><circle cx="6" cy="6" r="1.3" fill="#0a2820" opacity="0.92"></circle><circle cx="12" cy="6" r="1.3" fill="#0a2820" opacity="0.92"></circle><circle cx="18" cy="6" r="1.3" fill="#0a2820" opacity="0.92"></circle><circle cx="24" cy="6" r="1.3" fill="#0a2820" opacity="0.92"></circle><circle cx="30" cy="6" r="1.3" fill="#0a2820" opacity="0.92"></circle><circle cx="36" cy="6" r="1.3" fill="#0a2820" opacity="0.92"></circle><circle cx="42" cy="6" r="1.3" fill="#0a2820" opacity="0.92"></circle><circle cx="48" cy="6" r="1.3" fill="#0a2820" opacity="0.92"></circle><circle cx="-18" cy="12" r="1.3" fill="#0a2820" opacity="0.92"></circle><circle cx="-12" cy="12" r="1.3" fill="#0a2820" opacity="0.92"></circle><circle cx="-6" cy="12" r="1.3" fill="#0a2820" opacity="0.92"></circle><circle cx="0" cy="12" r="1.3" fill="#0a2820" opacity="0.92"></circle><circle cx="6" cy="12" r="1.3" fill="#0a2820" opacity="0.92"></circle><circle cx="12" cy="12" r="1.3" fill="#0a2820" opacity="0.92"></circle><circle cx="18" cy="12" r="1.3" fill="#0a2820" opacity="0.92"></circle><circle cx="24" cy="12" r="1.3" fill="#0a2820" opacity="0.92"></circle><circle cx="30" cy="12" r="1.3" fill="#0a2820" opacity="0.92"></circle><circle cx="36" cy="12" r="1.3" fill="#0a2820" opacity="0.92"></circle><circle cx="42" cy="12" r="1.3" fill="#0a2820" opacity="0.92"></circle><circle cx="-18" cy="18" r="1.3" fill="#0a2820" opacity="0.92"></circle><circle cx="-12" cy="18" r="1.3" fill="#0a2820" opacity="0.92"></circle><circle cx="-6" cy="18" r="1.3" fill="#0a2820" opacity="0.92"></circle><circle cx="0" cy="18" r="1.3" fill="#0a2820" opacity="0.92"></circle><circle cx="6" cy="18" r="1.3" fill="#0a2820" opacity="0.92"></circle><circle cx="12" cy="18" r="1.3" fill="#0a2820" opacity="0.92"></circle><circle cx="18" cy="18" r="1.3" fill="#0a2820" opacity="0.92"></circle><circle cx="24" cy="18" r="1.3" fill="#0a2820" opacity="0.92"></circle><circle cx="30" cy="18" r="1.3" fill="#0a2820" opacity="0.92"></circle><circle cx="36" cy="18" r="1.3" fill="#0a2820" opacity="0.92"></circle><circle cx="42" cy="18" r="1.3" fill="#0a2820" opacity="0.92"></circle><circle cx="-24" cy="24" r="1.3" fill="#0a2820" opacity="0.92"></circle><circle cx="-18" cy="24" r="1.3" fill="#0a2820" opacity="0.92"></circle><circle cx="-12" cy="24" r="1.3" fill="#0a2820" opacity="0.92"></circle><circle cx="-6" cy="24" r="1.3" fill="#0a2820" opacity="0.92"></circle><circle cx="0" cy="24" r="1.3" fill="#0a2820" opacity="0.92"></circle><circle cx="6" cy="24" r="1.3" fill="#0a2820" opacity="0.92"></circle><circle cx="12" cy="24" r="1.3" fill="#0a2820" opacity="0.92"></circle><circle cx="18" cy="24" r="1.3" fill="#0a2820" opacity="0.92"></circle><circle cx="24" cy="24" r="1.3" fill="#0a2820" opacity="0.92"></circle><circle cx="30" cy="24" r="1.3" fill="#0a2820" opacity="0.92"></circle><circle cx="36" cy="24" r="1.3" fill="#0a2820" opacity="0.92"></circle><circle cx="42" cy="24" r="1.3" fill="#0a2820" opacity="0.92"></circle><circle cx="-24" cy="30" r="1.3" fill="#0a2820" opacity="0.92"></circle><circle cx="-18" cy="30" r="1.3" fill="#0a2820" opacity="0.92"></circle><circle cx="-12" cy="30" r="1.3" fill="#0a2820" opacity="0.92"></circle><circle cx="-6" cy="30" r="1.3" fill="#0a2820" opacity="0.92"></circle><circle cx="0" cy="30" r="1.3" fill="#0a2820" opacity="0.92"></circle><circle cx="6" cy="30" r="1.3" fill="#0a2820" opacity="0.92"></circle><circle cx="12" cy="30" r="1.3" fill="#0a2820" opacity="0.92"></circle><circle cx="18" cy="30" r="1.3" fill="#0a2820" opacity="0.92"></circle><circle cx="24" cy="30" r="1.3" fill="#0a2820" opacity="0.92"></circle><circle cx="30" cy="30" r="1.3" fill="#0a2820" opacity="0.92"></circle><circle cx="36" cy="30" r="1.3" fill="#0a2820" opacity="0.92"></circle><circle cx="-24" cy="36" r="1.3" fill="#0a2820" opacity="0.92"></circle><circle cx="-18" cy="36" r="1.3" fill="#0a2820" opacity="0.92"></circle><circle cx="-12" cy="36" r="1.3" fill="#0a2820" opacity="0.92"></circle><circle cx="-6" cy="36" r="1.3" fill="#0a2820" opacity="0.92"></circle><circle cx="0" cy="36" r="1.3" fill="#0a2820" opacity="0.92"></circle><circle cx="6" cy="36" r="1.3" fill="#0a2820" opacity="0.92"></circle><circle cx="12" cy="36" r="1.3" fill="#0a2820" opacity="0.92"></circle><circle cx="18" cy="36" r="1.3" fill="#0a2820" opacity="0.92"></circle><circle cx="24" cy="36" r="1.3" fill="#0a2820" opacity="0.92"></circle><circle cx="30" cy="36" r="1.3" fill="#0a2820" opacity="0.92"></circle><circle cx="36" cy="36" r="1.3" fill="#0a2820" opacity="0.92"></circle><circle cx="-24" cy="42" r="1.3" fill="#0a2820" opacity="0.92"></circle><circle cx="-18" cy="42" r="1.3" fill="#0a2820" opacity="0.92"></circle><circle cx="-12" cy="42" r="1.3" fill="#0a2820" opacity="0.92"></circle><circle cx="-6" cy="42" r="1.3" fill="#0a2820" opacity="0.92"></circle><circle cx="0" cy="42" r="1.3" fill="#0a2820" opacity="0.92"></circle><circle cx="6" cy="42" r="1.3" fill="#0a2820" opacity="0.92"></circle><circle cx="12" cy="42" r="1.3" fill="#0a2820" opacity="0.92"></circle><circle cx="18" cy="42" r="1.3" fill="#0a2820" opacity="0.92"></circle><circle cx="24" cy="42" r="1.3" fill="#0a2820" opacity="0.92"></circle><circle cx="30" cy="42" r="1.3" fill="#0a2820" opacity="0.92"></circle><circle cx="36" cy="42" r="1.3" fill="#0a2820" opacity="0.92"></circle><circle cx="-24" cy="48" r="1.3" fill="#0a2820" opacity="0.92"></circle><circle cx="-18" cy="48" r="1.3" fill="#0a2820" opacity="0.92"></circle><circle cx="-12" cy="48" r="1.3" fill="#0a2820" opacity="0.92"></circle><circle cx="-6" cy="48" r="1.3" fill="#0a2820" opacity="0.92"></circle><circle cx="0" cy="48" r="1.3" fill="#0a2820" opacity="0.92"></circle><circle cx="6" cy="48" r="1.3" fill="#0a2820" opacity="0.92"></circle><circle cx="12" cy="48" r="1.3" fill="#0a2820" opacity="0.92"></circle><circle cx="18" cy="48" r="1.3" fill="#0a2820" opacity="0.92"></circle><circle cx="24" cy="48" r="1.3" fill="#0a2820" opacity="0.92"></circle><circle cx="30" cy="48" r="1.3" fill="#0a2820" opacity="0.92"></circle><circle cx="-24" cy="54" r="1.3" fill="#0a2820" opacity="0.92"></circle><circle cx="-18" cy="54" r="1.3" fill="#0a2820" opacity="0.92"></circle><circle cx="-12" cy="54" r="1.3" fill="#0a2820" opacity="0.92"></circle><circle cx="-6" cy="54" r="1.3" fill="#0a2820" opacity="0.92"></circle><circle cx="0" cy="54" r="1.3" fill="#0a2820" opacity="0.92"></circle><circle cx="6" cy="54" r="1.3" fill="#0a2820" opacity="0.92"></circle><circle cx="12" cy="54" r="1.3" fill="#0a2820" opacity="0.92"></circle><circle cx="18" cy="54" r="1.3" fill="#0a2820" opacity="0.92"></circle><circle cx="24" cy="54" r="1.3" fill="#0a2820" opacity="0.92"></circle><circle cx="30" cy="54" r="1.3" fill="#0a2820" opacity="0.92"></circle><circle cx="-24" cy="60" r="1.3" fill="#0a2820" opacity="0.92"></circle><circle cx="-18" cy="60" r="1.3" fill="#0a2820" opacity="0.92"></circle><circle cx="-12" cy="60" r="1.3" fill="#0a2820" opacity="0.92"></circle><circle cx="-6" cy="60" r="1.3" fill="#0a2820" opacity="0.92"></circle><circle cx="0" cy="60" r="1.3" fill="#0a2820" opacity="0.92"></circle><circle cx="6" cy="60" r="1.3" fill="#0a2820" opacity="0.92"></circle><circle cx="12" cy="60" r="1.3" fill="#0a2820" opacity="0.92"></circle><circle cx="18" cy="60" r="1.3" fill="#0a2820" opacity="0.92"></circle><circle cx="24" cy="60" r="1.3" fill="#0a2820" opacity="0.92"></circle><circle cx="-24" cy="66" r="1.3" fill="#0a2820" opacity="0.92"></circle><circle cx="-18" cy="66" r="1.3" fill="#0a2820" opacity="0.92"></circle><circle cx="-12" cy="66" r="1.3" fill="#0a2820" opacity="0.92"></circle><circle cx="-6" cy="66" r="1.3" fill="#0a2820" opacity="0.92"></circle><circle cx="0" cy="66" r="1.3" fill="#0a2820" opacity="0.92"></circle><circle cx="6" cy="66" r="1.3" fill="#0a2820" opacity="0.92"></circle><circle cx="12" cy="66" r="1.3" fill="#0a2820" opacity="0.92"></circle><circle cx="18" cy="66" r="1.3" fill="#0a2820" opacity="0.92"></circle><circle cx="-18" cy="72" r="1.3" fill="#0a2820" opacity="0.92"></circle><circle cx="-12" cy="72" r="1.3" fill="#0a2820" opacity="0.92"></circle><circle cx="-6" cy="72" r="1.3" fill="#0a2820" opacity="0.92"></circle><circle cx="0" cy="72" r="1.3" fill="#0a2820" opacity="0.92"></circle><circle cx="6" cy="72" r="1.3" fill="#0a2820" opacity="0.92"></circle><circle cx="12" cy="72" r="1.3" fill="#0a2820" opacity="0.92"></circle>

    <g transform="translate(0 96)">
      <line x1="-32" y1="0" x2="32" y2="0" stroke="#907028" stroke-width="0.6" opacity="0.55"></line>
      
    <circle cx="-32" cy="0" r="9" fill="#f0faf7" stroke="#907028" stroke-width="1.4"></circle>
    <text x="-32" y="3.3333333333333335" text-anchor="middle" font-family="&#39;JetBrains Mono&#39;, ui-monospace, Menlo, Consolas, monospace" font-weight="700" font-size="10" fill="#907028" letter-spacing="-0.02em">A</text>
      
    <circle cx="0" cy="0" r="9" fill="#f0faf7" stroke="#907028" stroke-width="1.4"></circle>
    <text x="0" y="3.3333333333333335" text-anchor="middle" font-family="&#39;JetBrains Mono&#39;, ui-monospace, Menlo, Consolas, monospace" font-weight="700" font-size="10" fill="#907028" letter-spacing="-0.02em">B</text>
      
    <circle cx="32" cy="0" r="9" fill="#f0faf7" stroke="#907028" stroke-width="1.4"></circle>
    <text x="32" y="3.3333333333333335" text-anchor="middle" font-family="&#39;JetBrains Mono&#39;, ui-monospace, Menlo, Consolas, monospace" font-weight="700" font-size="10" fill="#907028" letter-spacing="-0.02em">C</text>
    </g>
</g>

</svg>